<svg aria-hidden="true" focusable="false" data-prefix="fab" data-icon="facebook-messenger" class="svg-inline--fa fa-facebook-messenger" role="img" xmlns="http://www.w3.org/2000/svg" viewBox="0 0 512 512"><path fill="currentColor" d="M256.5 8C116.5 8 8 110.3 8 248.6c0 72.3 29.71 134.8 78.07 177.9 8.35 7.51 6.63 11.86 8.05 58.23A19.92 19.92 0 0 0 122 502.3c52.91-23.3 53.59-25.14 62.56-22.7C337.9 521.8 504 423.7 504 248.6 504 110.3 396.6 8 256.5 8zm149.2 185.1l-73 115.6a37.37 37.37 0 0 1 -53.91 9.93l-58.08-43.47a15 15 0 0 0 -18 0l-78.37 59.44c-10.46 7.93-24.16-4.6-17.11-15.67l73-115.6a37.36 37.36 0 0 1 53.91-9.93l58.06 43.46a15 15 0 0 0 18 0l78.41-59.38c10.44-7.98 24.14 4.54 17.09 15.62z"></path></svg>